:SAMPLES-PER-SECOND 30
:FRAME-RANGE 1-1086
:FULLY-SPECIFIED
:DEGREES
747
root  101.285 38.5537 -64.3663 178.958 -22.57 175.534
RightUpLeg  -22.2461 1.51062 -12.0553
RightLeg  45.852 -2.55897 -3.12592
RightFoot  -9.38949 -0.153757 5.2758
RightToes  1.21801e-010 1.2921e-014 -6.02303e-014
Spine  -4.49669 -0.360899 -0.0740255
Spine1  5.2618 -0.122593 -4.2756
HEad  22.5454 30.0882 -1.5424
LeftShoulder1  -0.0491194 3.51073 -17.2461
LeftArm  -0.831312 22.6492 -45.4784
LeftForeArm  8.71685 -67.915 -28.8599
LeftHand  0.037094 3.80107 -4.32963
RightShoulder  1.2701 0.969015 23.4995
RightArm  10.5594 -4.56896 31.5739
RightForeArm  39.7792 76.8228 54.416
RightHand  -0.0850051 -15.2152 0.0123743
LeftUpLeg  -3.48308 -4.0728 -13.1117
LeftLeg  19.6001 2.1564 2.8099
LeftFoot  -13.1508 0.192675 7.17764
LeftToes  3.79492e-011 -8.60219e-011 1.56273e-011
748
root  100.894 38.6113 -65.6931 178.464 -24.1846 176.425
RightUpLeg  -21.9751 2.28607 -12.2374
RightLeg  34.6948 -3.79484 -3.06271
RightFoot  -8.51591 -0.197712 5.66368
RightToes  1.21801e-010 1.2921e-014 -6.02303e-014
Spine  -4.71188 -0.905017 0.505578
Spine1  5.33913 -0.648112 -3.7296
HEad  21.2713 30.0617 -1.92405
LeftShoulder1  -0.00928616 3.34271 -17.292
LeftArm  -0.274844 21.9037 -46.5958
LeftForeArm  9.13707 -67.6894 -28.4033
LeftHand  0.0361286 3.66329 -4.20671
RightShoulder  1.19095 0.694056 23.5502
RightArm  9.4507 -5.9274 30.5058
RightForeArm  42.5674 77.2721 57.5716
RightHand  -0.0390815 -15.1103 -0.508329
LeftUpLeg  -0.306125 -3.23507 -11.9301
LeftLeg  18.5988 0.130292 2.1994
LeftFoot  -14.842 0.321845 7.59636
LeftToes  3.79492e-011 -8.60219e-011 1.56273e-011
749
root  100.5 38.5712 -67.0813 177.678 -25.5427 177.395
RightUpLeg  -20.6619 2.06804 -12.34
RightLeg  22.6343 -3.33716 -1.73481
RightFoot  -8.55484 -0.195356 5.63531
RightToes  1.21801e-010 1.2921e-014 -6.02303e-014
Spine  -4.7266 -1.34898 1.46173
Spine1  5.45942 -1.0114 -3.86416
HEad  20.266 29.9392 -2.15038
LeftShoulder1  0.0426421 3.12476 -17.3856
LeftArm  0.385634 21.0553 -47.2259
LeftForeArm  9.51682 -67.7301 -28.4188
LeftHand  0.0320351 3.78944 -4.06737
RightShoulder  1.13367 0.48623 23.6651
RightArm  8.09987 -7.14498 29.7404
RightForeArm  44.7415 77.5578 59.7747
RightHand  -0.0279599 -15.0553 -0.636157
LeftUpLeg  2.86732 -2.17137 -10.4928
LeftLeg  18.1619 -2.02163 1.67289
LeftFoot  -16.8679 0.471143 7.64558
LeftToes  3.79492e-011 -8.60219e-011 1.56273e-011
750
root  100.112 38.5072 -68.5046 176.546 -26.4507 178.747
RightUpLeg  -18.3677 2.64936 -11.6872
RightLeg  9.89194 -1.03647 -1.17638
RightFoot  -8.312 -0.23621 6.78569
RightToes  1.21801e-010 1.2921e-014 -6.02303e-014
Spine  -4.28972 -1.76462 2.45952
Spine1  5.1168 -1.48128 -3.48849
HEad  19.5916 30.3087 -2.47933
LeftShoulder1  0.0388027 3.14189 -17.5489
LeftArm  0.184622 20.7452 -47.9018
LeftForeArm  10.6018 -67.8819 -28.5249
LeftHand  0.035006 3.80919 -4.36304
RightShoulder  1.12332 0.463632 23.5622
RightArm  7.21983 -7.9543 29.1515
RightForeArm  45.5994 77.6784 60.8815
RightHand  -0.031058 -14.8917 -0.599929
LeftUpLeg  6.33863 -0.696788 -8.34512
LeftLeg  17.4763 -4.30639 1.1014
LeftFoot  -18.7731 0.605667 7.57399
LeftToes  3.79492e-011 -8.60219e-011 1.56273e-011
751
root  99.7012 38.3679 -69.9393 174.757 -27.2053 -179.565
RightUpLeg  -16.1321 -3.02497 -7.96102
RightLeg  1.20838 6.35981 -2.41312
RightFoot  -8.77228 -0.262145 9.00798
RightToes  1.21801e-010 1.2921e-014 -6.02303e-014
Spine  -3.3173 -2.05245 4.40037
Spine1  4.80074 -1.79472 -3.61634
HEad  19.2713 30.5174 -2.54342
LeftShoulder1  0.0532508 3.08361 -17.7777
LeftArm  0.116142 20.3618 -48.6496
LeftForeArm  11.2864 -68.1394 -28.8813
LeftHand  0.023157 3.97728 -3.99535
RightShoulder  1.05932 0.266512 23.3904
RightArm  6.52945 -8.54661 28.8062
RightForeArm  46.0815 77.757 61.7216
RightHand  -0.0194299 -14.8357 -0.737258
LeftUpLeg  10.2214 0.352327 -5.78986
LeftLeg  17.12 -6.03699 0.65193
LeftFoot  -20.8158 0.771259 7.78146
LeftToes  3.79492e-011 -8.60219e-011 1.56273e-011
752
root  99.337 38.0016 -71.4672 172.837 -27.9269 -178.052
RightUpLeg  -14.7632 -3.07238 -6.82713
RightLeg  -1.0037 9.05079 -2.25203
RightFoot  -10.767 -0.122426 9.77611
RightToes  1.21801e-010 1.2921e-014 -6.02303e-014
Spine  -1.84458 -2.38732 5.60714
Spine1  3.91138 -2.14708 -3.80696
HEad  19.6947 30.7719 -2.28841
LeftShoulder1  0.0672698 3.02801 -17.9985
LeftArm  -0.167304 19.9492 -49.3084
LeftForeArm  11.6519 -68.0876 -28.7331
LeftHand  0.0128738 4.21157 -3.8699
RightShoulder  0.999741 0.0619717 23.4069
RightArm  6.10428 -8.90245 28.3571
RightForeArm  45.6609 77.7402 61.7809
RightHand  -0.0297785 -14.7151 -0.614757
LeftUpLeg  13.4194 -0.454195 -3.86023
LeftLeg  18.9612 -6.11917 0.43875
LeftFoot  -23.9423 0.943923 7.23253
LeftToes  3.79492e-011 -8.60219e-011 1.56273e-011
753
root  98.9901 37.7136 -72.9712 171.129 -28.3 -176.31
RightUpLeg  -14.2935 0.132311 -4.85949
RightLeg  2.34753 6.00069 -2.3743
RightFoot  -9.01576 -0.239953 8.78017
RightToes  1.21801e-010 1.2921e-014 -6.02303e-014
Spine  -0.776507 -2.56773 7.13612
Spine1  3.61274 -2.39752 -3.77297
HEad  20.2744 31.0028 -2.09688
LeftShoulder1  0.0893643 2.93983 -18.1695
LeftArm  -0.330628 19.6508 -49.6834
LeftForeArm  11.9914 -68.1048 -28.7127
LeftHand  0.0101559 4.13215 -3.74184
RightShoulder  0.932779 -0.180711 23.557
RightArm  5.66254 -8.93937 28.3295
RightForeArm  43.7518 77.5345 60.1325
RightHand  -0.02284 -14.6484 -0.698373
LeftUpLeg  16.2151 -3.18506 -2.45555
LeftLeg  20.7342 -4.11975 0.417326
LeftFoot  -25.9106 0.888149 5.72161
LeftToes  3.79492e-011 -8.60219e-011 1.56273e-011
754
root  98.6331 37.6354 -74.4655 169.331 -28.4342 -174.447
RightUpLeg  -14.0431 3.79335 -3.38658
RightLeg  7.05643 5.02939 -1.37025
RightFoot  -4.25472 -0.635182 9.76586
RightToes  1.21801e-010 1.2921e-014 -6.02303e-014
Spine  0.161432 -2.75332 8.69071
Spine1  3.78643 -2.73727 -2.91541
HEad  21.1626 31.382 -1.82555
LeftShoulder1  0.0635086 3.04816 -18.4871
LeftArm  -0.367003 19.9038 -49.6306
LeftForeArm  12.7226 -68.4567 -29.2435
LeftHand  0.00674845 4.17387 -3.68954
RightShoulder  0.898475 -0.2969 23.5581
RightArm  5.36707 -8.93647 28.5965
RightForeArm  42.1332 77.3178 58.3762
RightHand  -0.0474959 -14.4602 -0.396304
LeftUpLeg  19.1907 -6.8169 -1.45684
LeftLeg  22.0643 -1.1275 0.253032
LeftFoot  -25.6856 0.5426 3.08312
LeftToes  3.79492e-011 -8.60219e-011 1.56273e-011
755
root  98.242 37.5978 -75.9522 168.302 -28.2681 -173.019
RightUpLeg  -14.4589 11.3361 -2.51851
RightLeg  11.4861 1.33096 -1.3739
RightFoot  0.0375221 -1.23185 12.323
RightToes  1.21801e-010 1.2921e-014 -6.02303e-014
Spine  0.988 -2.78246 10.5745
Spine1  3.17177 -2.70847 -2.59046
HEad  22.5227 31.8897 -1.84248
LeftShoulder1  0.0335623 3.1729 -19.3592
LeftArm  -0.441616 20.6086 -49.0446
LeftForeArm  13.0252 -68.4735 -29.2278
LeftHand  0.0057956 4.16781 -3.79995
RightShoulder  0.997241 0.00669742 23.8491
RightArm  4.65219 -10.6745 28.8265
RightForeArm  44.6452 77.5583 59.8469
RightHand  -0.0386886 -14.4313 -0.504353
LeftUpLeg  20.3604 -7.46619 0.249347
LeftLeg  25.361 -1.33438 -0.337918
LeftFoot  -24.0026 0.097112 -0.423998
LeftToes  3.79492e-011 -8.60219e-011 1.56273e-011
756
root  97.832 37.5086 -77.4428 168.463 -27.3758 -172.282
RightUpLeg  -16.1103 9.58071 -1.29674
RightLeg  17.6461 3.15443 0.920278
RightFoot  -0.428644 -1.31372 13.6625
RightToes  1.21801e-010 1.2921e-014 -6.02303e-014
Spine  0.557627 -2.56546 12.6145
Spine1  3.24767 -2.24522 -3.58059
HEad  23.4405 32.7308 -2.049
LeftShoulder1  0.0280961 3.19448 -19.4333
LeftArm  -1.27818 22.1606 -49.207
LeftForeArm  12.7124 -68.3091 -28.9725
LeftHand  0.00157633 4.27127 -3.68717
RightShoulder  0.76599 -0.81673 24.4646
RightArm  5.35303 -9.09961 28.9273
RightForeArm  39.2384 76.8345 54.7971
RightHand  -0.0372505 -14.2627 -0.520155
LeftUpLeg  18.4402 -5.54134 2.69582
LeftLeg  32.3636 -3.04186 -1.71121
LeftFoot  -20.0738 -0.251237 -4.86421
LeftToes  3.79492e-011 -8.60219e-011 1.56273e-011
757
root  97.4728 37.5537 -78.8277 168.927 -27.3549 -172.007
RightUpLeg  -16.2439 8.85683 -0.242546
RightLeg  20.9417 4.25932 1.5895
RightFoot  -1.62595 -1.12052 13.0016
RightToes  1.21801e-010 1.2921e-014 -6.02303e-014
Spine  0.418189 -2.64083 12.694
Spine1  3.08878 -2.39218 -2.68874
HEad  24.2633 33.5328 -1.91105
LeftShoulder1  0.0286391 3.19317 -19.6325
LeftArm  -2.41712 24.3149 -49.321
LeftForeArm  13.3437 -68.6416 -29.4941
LeftHand  -0.00045375 4.30054 -3.66699
RightShoulder  0.768423 -0.830815 24.7533
RightArm  5.48866 -8.5852 29.4814
RightForeArm  37.4073 76.4475 52.2596
RightHand  -0.0679519 -14.2205 -0.131369
LeftUpLeg  13.7523 -3.07678 5.34339
LeftLeg  42.0951 -3.7527 -3.22516
LeftFoot  -11.3449 0.0675813 -8.73339
LeftToes  3.79492e-011 -8.60219e-011 1.56273e-011
758
root  97.1265 37.6974 -80.0408 169.628 -28.0294 -171.571
RightUpLeg  -15.7642 7.67109 0.688528
RightLeg  22.2967 4.81575 1.95491
RightFoot  -3.09562 -0.803699 10.8256
RightToes  1.21801e-010 1.2921e-014 -6.02303e-014
Spine  0.542616 -2.87072 13.9852
Spine1  2.41655 -2.23909 -3.46063
HEad  24.5259 33.2461 -0.982112
LeftShoulder1  0.118044 2.82996 -18.5558
LeftArm  -3.07226 26.1216 -49.6078
LeftForeArm  14.2272 -69.0993 -30.2456
LeftHand  -0.00100182 4.23565 -3.62739
RightShoulder  0.6683 -1.22454 25.8128
RightArm  5.6968 -8.14642 29.3975
RightForeArm  37.3718 76.3449 51.4598
RightHand  -0.140502 -14.0807 0.808768
LeftUpLeg  6.76311 -1.85172 6.9839
LeftLeg  52.4124 -2.43426 -2.9162
LeftFoot  0.182433 1.11946 -11.0803
LeftToes  3.79492e-011 -8.60219e-011 1.56273e-011
